<?xml version="1.0" encoding="utf-8"?>
<!-- Generator: Adobe Illustrator 18.1.1, SVG Export Plug-In . SVG Version: 6.00 Build 0)  -->
<!DOCTYPE svg PUBLIC "-//W3C//DTD SVG 1.1//EN" "http://www.w3.org/Graphics/SVG/1.1/DTD/svg11.dtd">
<svg version="1.1" id="Layer_1" xmlns="http://www.w3.org/2000/svg" xmlns:xlink="http://www.w3.org/1999/xlink" x="0px" y="0px"
	 viewBox="0 0 260 260" enable-background="new 0 0 260 260" xml:space="preserve">
<g>
	<g>
		<circle fill="#365D6F" cx="129.4" cy="130" r="118.9"/>
		<g>
			<defs>
				<circle id="SVGID_1_" cx="129.4" cy="130" r="118.9"/>
			</defs>
			<clipPath id="SVGID_2_">
				<use xlink:href="#SVGID_1_"  overflow="visible"/>
			</clipPath>
			<g clip-path="url(#SVGID_2_)">
				<defs>
					<filter id="Adobe_OpacityMaskFilter" filterUnits="userSpaceOnUse" x="42" y="62.3" width="368.2" height="377.6">
						<feFlood  style="flood-color:white;flood-opacity:1" result="back"/>
						<feBlend  in="SourceGraphic" in2="back" mode="normal"/>
					</filter>
				</defs>
				<mask maskUnits="userSpaceOnUse" x="42" y="62.3" width="368.2" height="377.6" id="SVGID_3_">
					<g filter="url(#Adobe_OpacityMaskFilter)">
						<defs>
							<filter id="Adobe_OpacityMaskFilter_1_" filterUnits="userSpaceOnUse" x="42" y="62.3" width="368.2" height="377.6">
								<feFlood  style="flood-color:white;flood-opacity:1" result="back"/>
								<feBlend  in="SourceGraphic" in2="back" mode="normal"/>
							</filter>
						</defs>
						<mask maskUnits="userSpaceOnUse" x="42" y="62.3" width="368.2" height="377.6" id="SVGID_3_">
							<g filter="url(#Adobe_OpacityMaskFilter_1_)">
							</g>
						</mask>
						<linearGradient id="SVGID_4_" gradientUnits="userSpaceOnUse" x1="77.031" y1="111.0021" x2="283.5884" y2="317.5594">
							<stop  offset="5.376340e-03" style="stop-color:#FFFFFF"/>
							<stop  offset="7.355672e-02" style="stop-color:#F1F1F1"/>
							<stop  offset="0.202" style="stop-color:#CDCDCD"/>
							<stop  offset="0.377" style="stop-color:#929292"/>
							<stop  offset="0.5895" style="stop-color:#424242"/>
							<stop  offset="0.7267" style="stop-color:#0A0A0A"/>
							<stop  offset="0.8288" style="stop-color:#030303"/>
							<stop  offset="1" style="stop-color:#000000"/>
						</linearGradient>
						<path mask="url(#SVGID_3_)" fill="url(#SVGID_4_)" d="M410.2,304c0.4-3.4-6.1-8.9-8.6-10.9c-5.4-6.6-4.1-6.4-5.2-16.1
							c-0.4-3.9-3-19.1-7.9-18.3c-0.1-2.4-10.8-14.3-12.4-14.1c-0.2-3.1-181.6-182.3-181.6-182.3s-26.7,6.6-30.4,8.3
							c-7.5,3.5-19.6,15-25.5,20.7c-6.2,6-11.6,6.9-18.5,0.3c-16.3-15.5-34-25.2-56.4-29.3c0.5,10.5-2.8,7.9-2.8,7.9s4.7,6.8-7,3.6
							c-0.3,9.7-1.3,16.9-1.3,28c0,2.5,0,6.9,0,6.9l-10.6,2c0,0,1.7,28,5.6,31.2c9.5,11.8,4.1,36.6,4.1,36.6s-2.8,55.6-2.8,66
							c0,7.3,159.2,163.8,180.3,184.8c2,2,3.9,5.3,6.3,6.9c8,5.5,26.8,3.2,40,3.2c11.3,0,9.7,0.4,9.7-10.8c0-13.6,0-27.2,0-40.8
							c0-9.5-3.5-9-5-15.7c13.9-1.4,30.1,24.2,37.3,31.4c10.3,10.3,20.4,22.1,31.5,31.5c4.3,3.7,4.8,4.4,14.1,4.4c11,0,22,0,33,0
							c7,0,3.8-8.2,3.8-14.2c0-14.4,2-34.4-1.3-46.5c-1.1-4.1-2.6-7.9-5.6-10.1c6.6-0.5,1.3-32.7,9-31.9
							C407.2,337.3,409.7,308.8,410.2,304C410.3,302.4,410,305.4,410.2,304z"/>
					</g>
				</mask>
				<path fill="#284A56" d="M410.2,304c0.4-3.4-6.1-8.9-8.6-10.9c-5.4-6.6-4.1-6.4-5.2-16.1c-0.4-3.9-3-19.1-7.9-18.3
					c-0.1-2.4-10.8-14.3-12.4-14.1c-0.2-3.1-181.6-182.3-181.6-182.3s-26.7,6.6-30.4,8.3c-7.5,3.5-19.6,15-25.5,20.7
					c-6.2,6-11.6,6.9-18.5,0.3c-16.3-15.5-34-25.2-56.4-29.3c0.5,10.5-2.8,7.9-2.8,7.9s4.7,6.8-7,3.6c-0.3,9.7-1.3,16.9-1.3,28
					c0,2.5,0,6.9,0,6.9l-10.6,2c0,0,1.7,28,5.6,31.2c9.5,11.8,4.1,36.6,4.1,36.6s-2.8,55.6-2.8,66c0,7.3,159.2,163.8,180.3,184.8
					c2,2,3.9,5.3,6.3,6.9c8,5.5,26.8,3.2,40,3.2c11.3,0,9.7,0.4,9.7-10.8c0-13.6,0-27.2,0-40.8c0-9.5-3.5-9-5-15.7
					c13.9-1.4,30.1,24.2,37.3,31.4c10.3,10.3,20.4,22.1,31.5,31.5c4.3,3.7,4.8,4.4,14.1,4.4c11,0,22,0,33,0c7,0,3.8-8.2,3.8-14.2
					c0-14.4,2-34.4-1.3-46.5c-1.1-4.1-2.6-7.9-5.6-10.1c6.6-0.5,1.3-32.7,9-31.9C407.2,337.3,409.7,308.8,410.2,304
					C410.3,302.4,410,305.4,410.2,304z"/>
				<g>
					
						<rect x="58.5" y="150.5" transform="matrix(-0.9959 9.064390e-02 -9.064390e-02 -0.9959 156.4056 331.9129)" fill="#F3CE8C" width="24.3" height="38.1"/>
					<rect x="51.4" y="178.1" fill="#F4F1D4" width="40.4" height="38.1"/>
					<rect x="48.9" y="185.1" fill="#912626" width="46.5" height="59.4"/>
				</g>
				<g>
					
						<rect x="50.5" y="130.2" transform="matrix(-0.9527 0.3039 -0.3039 -0.9527 167.7176 272.4649)" fill="#F3CE8C" width="24.3" height="38.1"/>
				</g>
				<g>
					
						<rect x="176.4" y="150.5" transform="matrix(0.9959 9.064367e-02 -9.064367e-02 0.9959 16.1407 -16.387)" fill="#F3CE8C" width="24.3" height="38.1"/>
					<rect x="167.4" y="178.1" fill="#F4F1D4" width="40.4" height="38.1"/>
					<rect x="163.7" y="185.1" fill="#912626" width="46.5" height="59.4"/>
				</g>
				<g>
					
						<rect x="184.4" y="130.2" transform="matrix(0.9527 0.3039 -0.3039 0.9527 54.6507 -52.6465)" fill="#F3CE8C" width="24.3" height="38.1"/>
				</g>
				<g>
					<path fill="#F4F1D4" d="M203.1,167.4c-21.5-5.9-44.7-3.9-66.1,5.6c-0.9-30.1,2.1-56.5,1.2-86.6c18.6-17.2,19.4-22.5,56.4-29.3
						C197.2,93.9,201.2,130.7,203.1,167.4z"/>
					<path fill="#EAE3C0" d="M205,165.3c-22.2,1.5-44.2,3.7-66.1,6.5c-1-30.4,0.7-54.7-0.2-85.1c15.6-12.7,31.5-22,58.6-25.5
						C198.3,96,204.4,130.7,205,165.3z"/>
					<path fill="#F4F1D4" d="M206.5,172.8c-22.2,1.5-43.8,3.7-65.6,6.5c-1-30.4-1.9-60.8-2.9-91.2c22.1-14.2,33.1-18.4,61.9-23.4
						C202.5,100.7,204.5,136.7,206.5,172.8z"/>
					<path fill="#EAE3C0" d="M206.5,172.8c-22.2,1.5-43.8,3.7-65.6,6.5c-1-30.4-1.9-60.4-2.9-90.8c25.9-11.3,34.2-14.6,66.4-19.8
						C205.4,103.4,205.9,138.1,206.5,172.8z"/>
					<path fill="#F4F1D4" d="M206.5,173.4c-22,2.2-43.9,4.4-65.9,6.5c0-30.4,0-60.9,0-91.3c22.2-6.5,38.6-10.2,64.7-14.2
						C206.2,107.1,205.7,140.8,206.5,173.4z"/>
					<path fill="#F4F1D4" d="M55.2,167.4c21.5-5.9,44.7-3.9,66.1,5.6c0.9-30.1-2.1-56.5-1.2-86.6c-18.6-17.2-19.4-22.5-56.4-29.3
						C61.1,93.9,57.2,130.7,55.2,167.4z"/>
					<path fill="#EAE3C0" d="M53.4,165.3c22.2,1.5,44.2,3.7,66.1,6.5c1-30.4-0.7-54.7,0.2-85.1c-15.6-12.7-31.5-22-58.6-25.5
						C60.1,96,54,130.7,53.4,165.3z"/>
					<path fill="#F4F1D4" d="M51.9,172.8c22.1,1.5,43.8,3.7,65.6,6.5c1-30.4,1.9-60.8,2.9-91.2C98.3,73.9,87.3,69.6,58.5,64.6
						C55.8,100.7,53.9,136.7,51.9,172.8z"/>
					<path fill="#EAE3C0" d="M51.9,172.8c22.1,1.5,43.8,3.7,65.6,6.5c1-30.4,1.9-60.4,2.9-90.8C94.4,77.2,86.1,73.9,53.9,68.7
						C52.9,103.4,52.5,138.1,51.9,172.8z"/>
					<path fill="#F4F1D4" d="M51.9,173.4c21.9,2.2,43.9,4.4,65.9,6.5c0-30.4,0-60.9,0-91.3C95.5,82.1,79.1,78.4,53,74.5
						C52.1,107.1,52.7,140.8,51.9,173.4z"/>
					<path fill="#F4F1D4" d="M140.9,89c0,2.4-5.2,6.2-11.7,6.2s-11.7-3.8-11.7-6.2c0-2.4,5.2-3.8,11.7-3.8S140.9,86.5,140.9,89z"/>
					<path fill="#D75D27" d="M140.9,179.9c-7.2,6.9-16.2,6.9-23.4,0c0-30.4,0-60.9,0-91.3c7.2,6.9,16.2,6.9,23.4,0
						C140.9,119.1,140.9,149.5,140.9,179.9z"/>
					<path fill="#F69226" d="M140.9,116.1c-7.2,6.9-16.2,6.9-23.4,0c0-30.4,0,23.8,0-6.6c7.2,6.9,16.2,6.9,23.4,0
						C140.9,139.9,140.9,85.7,140.9,116.1z"/>
					<path fill="#F69226" d="M140.9,127.4c-7.2,6.9-16.2,6.9-23.4,0c0-30.4,0,23.9,0-6.6c7.2,6.9,16.2,6.9,23.4,0
						C140.9,151.2,140.9,96.9,140.9,127.4z"/>
					<path fill="#F69226" d="M140.9,171.5c-7.2,6.9-16.2,6.9-23.4,0c0-30.4,0,23.9,0-6.6c7.2,6.9,16.2,6.9,23.4,0
						C140.9,195.4,140.9,141.1,140.9,171.5z"/>
					<g>
						<path fill="#F69226" d="M206.7,173.4c-22,2.2-43.9,4.4-65.9,6.5c0-30.4,0-60.9,0-91.3c22-2.2,43.9-4.4,65.9-6.5
							C206.7,112.5,206.7,143,206.7,173.4z"/>
					</g>
					<g>
						<path fill="#D75D27" d="M203.4,97.2c-18.9,1.8-37.9,3.5-56.8,5.3c0-1.3,0-2.7,0-4c18.9-1.8,37.9-3.5,56.8-5.3
							C203.4,94.5,203.4,95.8,203.4,97.2z"/>
					</g>
					<g>
						<path fill="#D75D27" d="M203.4,104.1c-18.9,1.8-37.9,3.5-56.8,5.3c0-1.3,0-2.7,0-4c18.9-1.8,37.9-3.5,56.8-5.3
							C203.4,101.4,203.4,102.8,203.4,104.1z"/>
					</g>
					<g>
						<path fill="#D75D27" d="M186.9,150.2c-8,0.8-16,1.5-23.9,2.3c0-1.3,0-2.7,0-4c8-0.8,16-1.5,23.9-2.3
							C186.9,147.5,186.9,148.8,186.9,150.2z"/>
					</g>
					<g>
						<path fill="#D75D27" d="M182,157c-4.7,0.4-9.4,0.8-14.1,1.2c0-1.3,0-2.7,0-4c4.7-0.4,9.4-0.8,14.1-1.2
							C182,154.3,182,155.6,182,157z"/>
					</g>
					<g>
						<path fill="#F69226" d="M51.7,173.4c22,2.2,43.9,4.4,65.9,6.5c0-30.4,0-60.9,0-91.3c-22-2.2-43.9-4.4-65.9-6.5
							C51.7,112.5,51.7,143,51.7,173.4z"/>
					</g>
					<g>
						<path fill="#912626" d="M158.4,126.1c1.6,0.5,3.1,1,4.7,1.5c-2.7-14,3.7-27.1-0.1-41.2c-2.9,0.3-5.7,0.5-8.6,0.9
							c2.9,14.1-3.1,28.7,0.9,42.8C156.2,128.7,157.3,127.4,158.4,126.1z"/>
					</g>
				</g>
				<g>
					<path fill="#F3CE8C" d="M220.5,109.1c-0.3,2.5-2.5,4.3-5,4.1l-22.3-2.3c-2.5-0.3-4.3-2.5-4.1-5l0,0c0.3-2.5,2.5-4.3,5-4.1
						l22.3,2.3C218.9,104.3,220.7,106.6,220.5,109.1L220.5,109.1z"/>
					<path fill="#F3CE8C" d="M219.4,118.9c-0.3,2.5-2.5,4.3-5,4.1l-22.3-2.3c-2.5-0.3-4.3-2.5-4.1-5l0,0c0.3-2.5,2.5-4.3,5-4.1
						l22.3,2.3C217.8,114.1,219.6,116.4,219.4,118.9L219.4,118.9z"/>
					<path fill="#F3CE8C" d="M218.5,128.8c-0.3,2.5-2.5,4.3-5,4.1l-22.3-2.3c-2.5-0.3-4.3-2.5-4.1-5l0,0c0.3-2.5,2.5-4.3,5-4.1
						l22.3,2.3C217,124,218.8,126.3,218.5,128.8L218.5,128.8z"/>
					<path fill="#F3CE8C" d="M217.3,138.1c-0.2,2.3-2.1,4-4.2,3.8l-18.5-1.9c-2.1-0.2-3.6-2.3-3.3-4.6l0,0c0.2-2.3,2.1-4,4.2-3.8
						l18.5,1.9C216.1,133.8,217.5,135.8,217.3,138.1L217.3,138.1z"/>
					<path fill="#F3CE8C" d="M216.4,134.3c-0.3,3.6-3.6,6.2-7.4,5.9l0,0c-3.8-0.3-6.6-3.5-6.3-7.1l2-22.7c0.3-3.6,3.6-6.2,7.4-5.9
						l0,0c3.8,0.3,6.6,3.5,6.3,7.1L216.4,134.3z"/>
				</g>
				<g>
					<path fill="#F3CE8C" d="M38.7,109.1c0.3,2.5,2.5,4.3,5,4.1l22.3-2.3c2.5-0.3,4.3-2.5,4.1-5l0,0c-0.3-2.5-2.5-4.3-5-4.1
						l-22.3,2.3C40.2,104.3,38.4,106.6,38.7,109.1L38.7,109.1z"/>
					<path fill="#F3CE8C" d="M39.8,118.9c0.3,2.5,2.5,4.3,5,4.1l22.3-2.3c2.5-0.3,4.3-2.5,4.1-5l0,0c-0.3-2.5-2.5-4.3-5-4.1
						l-22.3,2.3C41.3,114.1,39.5,116.4,39.8,118.9L39.8,118.9z"/>
					<path fill="#F3CE8C" d="M40.6,128.8c0.3,2.5,2.5,4.3,5,4.1l22.3-2.3c2.5-0.3,4.3-2.5,4.1-5l0,0c-0.3-2.5-2.5-4.3-5-4.1
						l-22.3,2.3C42.2,124,40.4,126.3,40.6,128.8L40.6,128.8z"/>
					<path fill="#F3CE8C" d="M41.8,138.1c0.2,2.3,2.1,4,4.2,3.8l18.5-1.9c2.1-0.2,3.6-2.3,3.3-4.6l0,0c-0.2-2.3-2.1-4-4.2-3.8
						l-18.5,1.9C43.1,133.8,41.6,135.8,41.8,138.1L41.8,138.1z"/>
					<path fill="#F3CE8C" d="M42.7,134.3c0.3,3.6,3.6,6.2,7.4,5.9l0,0c3.8-0.3,6.6-3.5,6.3-7.1l-2-22.7c-0.3-3.6-3.6-6.2-7.4-5.9
						l0,0c-3.8,0.3-6.6,3.5-6.3,7.1L42.7,134.3z"/>
				</g>
				<rect x="-23.1" y="34.3" fill="none" width="315.9" height="210.2"/>
			</g>
		</g>
	</g>
	<path fill="#A33434" d="M130,14.2c63.9,0,115.8,51.8,115.8,115.8c0,63.9-51.8,115.8-115.8,115.8c-63.9,0-115.8-51.8-115.8-115.8
		C14.2,66.1,66.1,14.2,130,14.2 M130,1C95.5,1,63.1,14.4,38.8,38.8C14.4,63.1,1,95.5,1,130c0,34.5,13.4,66.9,37.8,91.2
		S95.5,259,130,259c34.5,0,66.9-13.4,91.2-37.8c24.4-24.4,37.8-56.8,37.8-91.2c0-34.5-13.4-66.9-37.8-91.2C196.9,14.4,164.5,1,130,1
		L130,1z"/>
</g>
</svg>
